<svg xmlns="http://www.w3.org/2000/svg" width="44.474" height="41.722" viewBox="0 0 11.767 11.039" xmlns:v="https://vecta.io/nano"><path d="M1.609 6.386C.939 6.303.324 5.945.131 5.525c-.243-.527-.139-1.187.243-1.547.285-.268.514-.347 1.158-.399l2.253-.124h.096l.014-1.168.065-1.325c.22-.683.819-1.034 1.598-.938.5.062.894.354 1.134.841.16.325.179.481.163 1.353-.013.717-.019.78-.095 1.032a3.46 3.46 0 0 1-.87 1.459C4.923 5.721 3.57 6.335 2.17 6.396c-.194.009-.447.004-.562-.01z" fill="#00008a"/><path d="M3.84 3.476c-.007 1.297-.8 2.825-.8 2.825 1.639-.337 3.039-1.423 3.593-2.546.375-.611.317-1.503.299-2.145C6.913.981 6.582-.031 5.344 0 3.996.035 3.878 1.108 3.878 1.108z" fill="#f9f9f9"/><path d="M6.096 11.009a1.43 1.43 0 0 1-1.059-.78c-.196-.396-.213-.522-.189-1.33.018-.602.033-.756.094-.996.175-.683.594-1.306 1.25-1.858.897-.755 1.959-1.197 3.085-1.285.971-.076 1.641.084 2.08.495.286.268.41.561.41.964-.001.663-.343 1.106-.974 1.264-.225.056-.939.1-2.064.126l-.888.021-.001.428-.029 1.143c-.031.812-.069.988-.272 1.277-.289.41-.89.631-1.443.532z" fill="navy"/><path d="M7.871 7.603c.055-1.301.806-2.761.806-2.761-1.615.281-2.944 1.277-3.526 2.384-.389.6-.365 1.498-.371 2.142-.006.632.281 1.659 1.493 1.671 1.319.013 1.534-1.087 1.534-1.087z" fill="#fff"/></svg>